# Blender v2.79 (sub 0) OBJ File: 'baiye.blend'
# www.blender.org
mtllib baiye.mtl
o BezierCircle
v 8.603761 -8.000000 0.300000
v 8.603761 8.000000 0.300000
v 8.563063 -8.000000 0.297260
v 8.563063 8.000000 0.297261
v 8.524026 -8.000001 0.289280
v 8.524026 8.000001 0.289280
v 8.487007 -8.000001 0.276418
v 8.487007 8.000001 0.276418
v 8.452366 -8.000002 0.259031
v 8.452366 8.000002 0.259031
v 8.420460 -8.000001 0.237477
v 8.420460 8.000001 0.237477
v 8.391646 -8.000002 0.212114
v 8.391646 8.000002 0.212114
v 8.366284 -8.000001 0.183301
v 8.366284 8.000001 0.183301
v 8.344730 -8.000000 0.151394
v 8.344730 8.000000 0.151394
v 8.327343 -8.000001 0.116753
v 8.327343 8.000001 0.116753
v 8.314481 -8.000001 0.079735
v 8.314480 8.000001 0.079735
v 8.306500 -8.000001 0.040698
v 8.306500 8.000001 0.040698
v 8.303761 -8.000001 0.000000
v 8.303761 8.000001 0.000000
v 8.306500 -8.000001 -0.040698
v 8.306500 8.000001 -0.040698
v 8.314481 -8.000001 -0.079735
v 8.314480 8.000001 -0.079735
v 8.327343 -8.000000 -0.116753
v 8.327343 8.000000 -0.116753
v 8.344730 -8.000001 -0.151394
v 8.344730 8.000001 -0.151394
v 8.366284 -8.000000 -0.183301
v 8.366284 8.000000 -0.183301
v 8.391646 -8.000001 -0.212114
v 8.391646 8.000001 -0.212114
v 8.420460 -8.000001 -0.237477
v 8.420460 8.000001 -0.237477
v 8.452366 -8.000000 -0.259031
v 8.452366 8.000000 -0.259030
v 8.487007 -8.000001 -0.276418
v 8.487007 8.000001 -0.276418
v 8.524026 -8.000001 -0.289280
v 8.524026 8.000001 -0.289280
v 8.563063 -8.000001 -0.297260
v 8.563063 8.000001 -0.297260
v 8.603761 -7.999999 -0.300000
v 8.603761 7.999999 -0.300000
v 8.644459 -8.000000 -0.297261
v 8.644459 8.000000 -0.297260
v 8.683496 -8.000001 -0.289280
v 8.683496 8.000001 -0.289280
v 8.720514 -8.000001 -0.276418
v 8.720514 8.000001 -0.276418
v 8.755156 -8.000000 -0.259031
v 8.755156 8.000000 -0.259031
v 8.787062 -8.000001 -0.237477
v 8.787062 8.000001 -0.237477
v 8.815875 -8.000000 -0.212114
v 8.815875 8.000000 -0.212114
v 8.841237 -8.000001 -0.183301
v 8.841238 8.000001 -0.183301
v 8.862791 -8.000000 -0.151395
v 8.862791 8.000000 -0.151394
v 8.880178 -8.000001 -0.116753
v 8.880178 8.000001 -0.116753
v 8.893041 -8.000001 -0.079735
v 8.893042 8.000001 -0.079735
v 8.901021 -8.000001 -0.040698
v 8.901021 8.000001 -0.040698
v 8.903761 -8.000001 -0.000000
v 8.903761 8.000001 0.000000
v 8.901021 -8.000001 0.040698
v 8.901021 8.000001 0.040698
v 8.893041 -8.000001 0.079735
v 8.893042 8.000001 0.079735
v 8.880178 -8.000001 0.116753
v 8.880178 8.000001 0.116753
v 8.862791 -8.000001 0.151394
v 8.862791 8.000001 0.151394
v 8.841237 -8.000000 0.183301
v 8.841237 8.000000 0.183301
v 8.815875 -8.000001 0.212114
v 8.815875 8.000001 0.212114
v 8.787062 -8.000001 0.237477
v 8.787062 8.000001 0.237477
v 8.755156 -8.000000 0.259030
v 8.755156 8.000000 0.259031
v 8.720514 -8.000001 0.276418
v 8.720514 8.000001 0.276418
v 8.683496 -8.000001 0.289280
v 8.683496 8.000001 0.289280
v 8.644459 -8.000001 0.297260
v 8.644459 8.000001 0.297261
vn 0.0000 0.0000 1.0000
vn -0.1340 0.0000 0.9910
vn -0.2648 0.0000 0.9643
vn -0.3892 0.0000 0.9211
vn -0.5052 0.0000 0.8630
vn -0.6115 0.0000 0.7912
vn -0.7071 0.0000 0.7071
vn -0.7912 0.0000 0.6115
vn -0.8630 0.0000 0.5052
vn -0.9211 0.0000 0.3892
vn -0.9643 0.0000 0.2648
vn -0.9910 0.0000 0.1340
vn -1.0000 0.0000 0.0000
vn -0.9910 0.0000 -0.1340
vn -0.9643 0.0000 -0.2648
vn -0.9211 0.0000 -0.3892
vn -0.8630 0.0000 -0.5052
vn -0.7912 0.0000 -0.6115
vn -0.7071 0.0000 -0.7071
vn -0.6115 0.0000 -0.7912
vn -0.5052 0.0000 -0.8630
vn -0.3892 0.0000 -0.9211
vn -0.2648 0.0000 -0.9643
vn -0.1340 0.0000 -0.9910
vn 0.0000 0.0000 -1.0000
vn 0.1340 0.0000 -0.9910
vn 0.2648 0.0000 -0.9643
vn 0.3892 0.0000 -0.9211
vn 0.5052 0.0000 -0.8630
vn 0.6115 0.0000 -0.7912
vn 0.7071 0.0000 -0.7071
vn 0.7912 0.0000 -0.6115
vn 0.8630 0.0000 -0.5052
vn 0.9211 0.0000 -0.3892
vn 0.9643 0.0000 -0.2648
vn 0.9910 0.0000 -0.1340
vn 1.0000 0.0000 0.0000
vn 0.9910 0.0000 0.1340
vn 0.9643 0.0000 0.2648
vn 0.9211 0.0000 0.3892
vn 0.8630 0.0000 0.5052
vn 0.7912 0.0000 0.6115
vn 0.7071 0.0000 0.7071
vn 0.6115 0.0000 0.7912
vn 0.5052 0.0000 0.8630
vn 0.3892 0.0000 0.9211
vn 0.2648 0.0000 0.9643
vn 0.1340 0.0000 0.9910
usemtl Material.001
s 1
f 2//1 4//2 3//2 1//1
f 4//2 6//3 5//3 3//2
f 6//3 8//4 7//4 5//3
f 8//4 10//5 9//5 7//4
f 10//5 12//6 11//6 9//5
f 12//6 14//7 13//7 11//6
f 14//7 16//8 15//8 13//7
f 16//8 18//9 17//9 15//8
f 18//9 20//10 19//10 17//9
f 20//10 22//11 21//11 19//10
f 22//11 24//12 23//12 21//11
f 24//12 26//13 25//13 23//12
f 26//13 28//14 27//14 25//13
f 28//14 30//15 29//15 27//14
f 30//15 32//16 31//16 29//15
f 32//16 34//17 33//17 31//16
f 34//17 36//18 35//18 33//17
f 36//18 38//19 37//19 35//18
f 38//19 40//20 39//20 37//19
f 40//20 42//21 41//21 39//20
f 42//21 44//22 43//22 41//21
f 44//22 46//23 45//23 43//22
f 46//23 48//24 47//24 45//23
f 48//24 50//25 49//25 47//24
f 50//25 52//26 51//26 49//25
f 52//26 54//27 53//27 51//26
f 54//27 56//28 55//28 53//27
f 56//28 58//29 57//29 55//28
f 58//29 60//30 59//30 57//29
f 60//30 62//31 61//31 59//30
f 62//31 64//32 63//32 61//31
f 64//32 66//33 65//33 63//32
f 66//33 68//34 67//34 65//33
f 68//34 70//35 69//35 67//34
f 70//35 72//36 71//36 69//35
f 72//36 74//37 73//37 71//36
f 74//37 76//38 75//38 73//37
f 76//38 78//39 77//39 75//38
f 78//39 80//40 79//40 77//39
f 80//40 82//41 81//41 79//40
f 82//41 84//42 83//42 81//41
f 84//42 86//43 85//43 83//42
f 86//43 88//44 87//44 85//43
f 88//44 90//45 89//45 87//44
f 90//45 92//46 91//46 89//45
f 92//46 94//47 93//47 91//46
f 94//47 96//48 95//48 93//47
f 96//48 2//1 1//1 95//48
o BezierCurve.001
v 0.999347 0.083787 0.000000
v 1.222755 0.083787 -0.268437
v 1.415306 0.083787 -0.381891
v 1.583161 0.083787 -0.372216
v 1.732483 0.083787 -0.271263
v 1.869434 0.083787 -0.110886
v 2.000177 0.083787 0.077062
v 2.130873 0.083787 0.260729
v 2.267686 0.083787 0.408263
v 2.416778 0.083787 0.487809
v 2.584310 0.083787 0.467516
v 2.776446 0.083787 0.315531
v 2.999347 0.083787 0.000000
l 97 98
l 98 99
l 99 100
l 100 101
l 101 102
l 102 103
l 103 104
l 104 105
l 105 106
l 106 107
l 107 108
l 108 109
o BezierCurve
v -1.000001 -7.916214 -0.000000
v -0.999999 8.083788 0.000000
v -0.776593 -7.916215 -0.268438
v -0.776591 8.083789 -0.268436
v -0.584042 -7.916213 -0.381892
v -0.584041 8.083787 -0.381890
v -0.416186 -7.916214 -0.372217
v -0.416187 8.083788 -0.372214
v -0.266864 -7.916213 -0.271263
v -0.266865 8.083787 -0.271263
v -0.129912 -7.916214 -0.110886
v -0.129915 8.083788 -0.110886
v 0.000830 -7.916214 0.077063
v 0.000828 8.083788 0.077062
v 0.131527 -7.916214 0.260730
v 0.131525 8.083788 0.260729
v 0.268340 -7.916213 0.408263
v 0.268338 8.083787 0.408262
v 0.417432 -7.916214 0.487809
v 0.417429 8.083788 0.487810
v 0.584964 -7.916214 0.467516
v 0.584962 8.083788 0.467517
v 0.777100 -7.916214 0.315530
v 0.777098 8.083788 0.315532
v 1.000000 -7.916214 -0.000001
v 1.000000 8.083788 0.000001
v 6.969162 -7.916213 0.000000
v 6.969162 8.083787 0.000000
v 7.199757 -7.916213 -0.276743
v 7.199757 8.083787 -0.276743
v 7.411252 -7.916213 -0.412095
v 7.411252 8.083787 -0.412095
v 7.605890 -7.916213 -0.433379
v 7.605890 8.083787 -0.433379
v 7.785915 -7.916213 -0.367917
v 7.785915 8.083787 -0.367917
v 7.953569 -7.916213 -0.243030
v 7.953569 8.083787 -0.243030
v 8.111095 -7.916213 -0.086042
v 8.111095 8.083787 -0.086041
v 8.260736 -7.916213 0.075728
v 8.260736 8.083787 0.075728
v 8.404735 -7.916215 0.214955
v 8.404735 8.083789 0.214955
v 8.545334 -7.916214 0.304318
v 8.545334 8.083788 0.304317
v 8.684776 -7.916214 0.316494
v 8.684776 8.083788 0.316494
v 8.825304 -7.916213 0.224162
v 8.825304 8.083787 0.224163
v 8.969162 -7.916213 0.000000
v 8.969162 8.083787 0.000000
v 4.967844 -7.916213 0.000001
v 4.967843 8.083787 -0.000001
v 5.191252 -7.916214 -0.268436
v 5.191252 8.083788 -0.268438
v 5.383802 -7.916214 -0.381890
v 5.383801 8.083788 -0.381892
v 5.551656 -7.916213 -0.372215
v 5.551657 8.083787 -0.372216
v 5.700978 -7.916214 -0.271263
v 5.700980 8.083788 -0.271263
v 5.837929 -7.916214 -0.110886
v 5.837931 8.083788 -0.110886
v 5.968671 -7.916214 0.077062
v 5.968673 8.083788 0.077062
v 6.099368 -7.916214 0.260730
v 6.099370 8.083788 0.260729
v 6.236181 -7.916214 0.408263
v 6.236183 8.083788 0.408262
v 6.385273 -7.916214 0.487810
v 6.385275 8.083788 0.487808
v 6.552807 -7.916213 0.467517
v 6.552806 8.083787 0.467515
v 6.744943 -7.916212 0.315531
v 6.744942 8.083786 0.315531
v 6.967844 -7.916215 0.000000
v 6.967843 8.083789 -0.000000
v 2.992116 -7.916213 0.000001
v 2.992115 8.083787 -0.000001
v 3.215524 -7.916214 -0.268436
v 3.215524 8.083788 -0.268438
v 3.408074 -7.916214 -0.381890
v 3.408075 8.083788 -0.381892
v 3.575929 -7.916214 -0.372215
v 3.575930 8.083788 -0.372216
v 3.725250 -7.916214 -0.271263
v 3.725252 8.083788 -0.271263
v 3.862202 -7.916213 -0.110886
v 3.862203 8.083787 -0.110886
v 3.992944 -7.916214 0.077062
v 3.992946 8.083788 0.077062
v 4.123641 -7.916213 0.260730
v 4.123642 8.083787 0.260729
v 4.260454 -7.916213 0.408263
v 4.260455 8.083787 0.408262
v 4.409545 -7.916215 0.487810
v 4.409547 8.083789 0.487809
v 4.577079 -7.916213 0.467517
v 4.577078 8.083787 0.467516
v 4.769215 -7.916214 0.315531
v 4.769214 8.083788 0.315531
v 4.992116 -7.916213 0.000000
v 4.992115 8.083787 0.000000
v 0.999347 -7.916214 0.000000
v 0.999347 8.083788 0.000000
v 1.222755 -7.916214 -0.268437
v 1.222755 8.083788 -0.268437
v 1.415306 -7.916214 -0.381891
v 1.415306 8.083788 -0.381891
v 1.583161 -7.916214 -0.372216
v 1.583161 8.083788 -0.372216
v 1.732483 -7.916213 -0.271263
v 1.732483 8.083787 -0.271263
v 1.869434 -7.916213 -0.110886
v 1.869434 8.083787 -0.110886
v 2.000176 -7.916214 0.077062
v 2.000176 8.083788 0.077062
v 2.130873 -7.916215 0.260730
v 2.130873 8.083789 0.260729
v 2.267686 -7.916212 0.408263
v 2.267686 8.083786 0.408263
v 2.416777 -7.916213 0.487809
v 2.416777 8.083787 0.487809
v 2.584310 -7.916214 0.467516
v 2.584310 8.083788 0.467516
v 2.776446 -7.916214 0.315531
v 2.776446 8.083788 0.315531
v 2.999347 -7.916213 0.000000
v 2.999347 8.083787 0.000000
vn -0.7686 0.0000 -0.6397
vn -0.6477 0.0000 -0.7619
vn -0.2352 0.0000 -0.9719
vn 0.3203 0.0000 -0.9473
vn 0.6663 0.0000 -0.7457
vn 0.7917 0.0000 -0.6110
vn 0.8178 0.0000 -0.5754
vn 0.7756 0.0000 -0.6312
vn 0.6104 0.0000 -0.7920
vn 0.1837 0.0000 -0.9830
vn -0.3847 0.0000 -0.9230
vn -0.7260 0.0000 -0.6877
vn -0.8167 0.0000 -0.5770
vn -0.7682 0.0000 -0.6401
vn -0.6614 0.0000 -0.7500
vn -0.3326 0.0000 -0.9430
vn 0.1196 0.0000 -0.9928
vn 0.4746 0.0000 -0.8802
vn 0.6533 0.0000 -0.7571
vn 0.7201 0.0000 -0.6938
vn 0.7149 0.0000 -0.6992
vn 0.6189 0.0000 -0.7855
vn 0.3208 0.0000 -0.9471
vn -0.2446 0.0000 -0.9696
vn -0.7109 0.0000 -0.7033
vn -0.8416 0.0000 -0.5401
usemtl Material
s 1
f 111//49 113//50 112//50 110//49
f 113//50 115//51 114//51 112//50
f 115//51 117//52 116//52 114//51
f 117//52 119//53 118//53 116//52
f 119//53 121//54 120//54 118//53
f 121//54 123//55 122//55 120//54
f 123//55 125//56 124//56 122//55
f 125//56 127//57 126//57 124//56
f 127//57 129//58 128//58 126//57
f 129//58 131//59 130//59 128//58
f 131//59 133//60 132//60 130//59
f 133//60 135//61 134//61 132//60
f 137//62 139//63 138//63 136//62
f 139//63 141//64 140//64 138//63
f 141//64 143//65 142//65 140//64
f 143//65 145//66 144//66 142//65
f 145//66 147//67 146//67 144//66
f 147//67 149//68 148//68 146//67
f 149//68 151//69 150//69 148//68
f 151//69 153//70 152//70 150//69
f 153//70 155//71 154//71 152//70
f 155//71 157//72 156//72 154//71
f 157//72 159//73 158//73 156//72
f 159//73 161//74 160//74 158//73
f 163//49 165//50 164//50 162//49
f 165//50 167//51 166//51 164//50
f 167//51 169//52 168//52 166//51
f 169//52 171//53 170//53 168//52
f 171//53 173//54 172//54 170//53
f 173//54 175//55 174//55 172//54
f 175//55 177//56 176//56 174//55
f 177//56 179//57 178//57 176//56
f 179//57 181//58 180//58 178//57
f 181//58 183//59 182//59 180//58
f 183//59 185//60 184//60 182//59
f 185//60 187//61 186//61 184//60
f 189//49 191//50 190//50 188//49
f 191//50 193//51 192//51 190//50
f 193//51 195//52 194//52 192//51
f 195//52 197//53 196//53 194//52
f 197//53 199//54 198//54 196//53
f 199//54 201//55 200//55 198//54
f 201//55 203//56 202//56 200//55
f 203//56 205//57 204//57 202//56
f 205//57 207//58 206//58 204//57
f 207//58 209//59 208//59 206//58
f 209//59 211//60 210//60 208//59
f 211//60 213//61 212//61 210//60
f 215//49 217//50 216//50 214//49
f 217//50 219//51 218//51 216//50
f 219//51 221//52 220//52 218//51
f 221//52 223//53 222//53 220//52
f 223//53 225//54 224//54 222//53
f 225//54 227//55 226//55 224//54
f 227//55 229//56 228//56 226//55
f 229//56 231//57 230//57 228//56
f 231//57 233//58 232//58 230//57
f 233//58 235//59 234//59 232//58
f 235//59 237//60 236//60 234//59
f 237//60 239//61 238//61 236//60
