# Blender v2.79 (sub 0) OBJ File: 'chair.blend'
# www.blender.org
mtllib chair.mtl
o chair_down.003_Cube.009
v 1.000000 1.305516 0.121832
v 1.000000 2.999047 0.269997
v -1.000000 2.999047 0.269997
v -1.000000 1.305516 0.121832
v 1.000000 1.340379 -0.276645
v 0.999999 3.033910 -0.128481
v -1.000000 3.033909 -0.128481
v -1.000000 1.340378 -0.276645
v 1.000000 0.726654 -1.710311
v 1.000000 0.726654 0.289689
v -1.000000 0.726654 0.289689
v -1.000000 0.726654 -1.710311
v 1.000000 1.326654 -1.710310
v 0.999999 1.326653 0.289690
v -1.000000 1.326654 0.289689
v -1.000000 1.326654 -1.710311
v 1.000000 2.706072 0.287532
v 1.000000 2.706072 0.487532
v -1.000000 2.706072 0.487532
v -1.000000 2.706072 0.287532
v 1.000000 3.006072 0.287532
v 0.999999 3.006072 0.487532
v -1.000000 3.006072 0.487532
v -1.000000 3.006072 0.287532
v -1.101430 1.802244 0.279029
v -1.101430 2.002244 0.279029
v -1.101430 1.802244 -1.520971
v -1.101430 2.002244 -1.520971
v -1.001430 1.802244 0.279029
v -1.001430 2.002244 0.279029
v -1.001430 1.802244 -1.520971
v -1.001430 2.002244 -1.520971
v 1.001816 1.802244 0.279029
v 1.001816 2.002244 0.279029
v 1.001816 1.802244 -1.520971
v 1.001816 2.002244 -1.520971
v 1.101816 1.802244 0.279029
v 1.101816 2.002244 0.279029
v 1.101816 1.802244 -1.520971
v 1.101816 2.002244 -1.520971
v -1.102239 0.005801 0.487532
v -1.102239 3.005801 0.487532
v -1.102239 0.005801 0.287532
v -1.102239 3.005801 0.287532
v -1.002239 0.005801 0.487532
v -1.002239 3.005801 0.487532
v -1.002239 0.005801 0.287532
v -1.002239 3.005801 0.287532
v 1.001816 0.010936 0.487533
v 1.001816 3.010937 0.487533
v 1.001816 0.010936 0.287533
v 1.001816 3.010936 0.287533
v 1.101816 0.010936 0.487533
v 1.101816 3.010937 0.487533
v 1.101816 0.010936 0.287533
v 1.101816 3.010936 0.287533
v -1.101430 0.005281 -1.517210
v -1.101430 2.005281 -1.517211
v -1.101430 0.005281 -1.717211
v -1.101430 2.005281 -1.717211
v -1.001430 0.005281 -1.517210
v -1.001430 2.005281 -1.517211
v -1.001430 0.005281 -1.717211
v -1.001430 2.005281 -1.717211
v 1.001816 0.005281 -1.517210
v 1.001816 2.005281 -1.517211
v 1.001816 0.005281 -1.717211
v 1.001816 2.005281 -1.717211
v 1.101816 0.005281 -1.517210
v 1.101816 2.005281 -1.517211
v 1.101816 0.005281 -1.717211
v 1.101816 2.005281 -1.717211
v 1.100000 0.700000 -1.714258
v 1.100000 0.700000 0.485742
v -1.100000 0.700000 0.485742
v -1.100000 0.700000 -1.714259
v 1.100001 0.900000 -1.714257
v 1.099999 0.900000 0.485743
v -1.100000 0.900000 0.485742
v -1.100000 0.900000 -1.714258
vn 0.0000 -0.0872 0.9962
vn 0.0000 0.0872 -0.9962
vn 1.0000 0.0000 -0.0000
vn -0.0000 0.9962 0.0872
vn -1.0000 -0.0000 0.0000
vn 0.0000 -0.9962 -0.0872
vn -0.0000 -1.0000 -0.0000
vn 0.0000 1.0000 0.0000
vn -0.0000 -0.0000 1.0000
vn 0.0000 0.0000 -1.0000
usemtl deep
s off
f 1//1 2//1 3//1 4//1
f 5//2 8//2 7//2 6//2
f 1//3 5//3 6//3 2//3
f 2//4 6//4 7//4 3//4
f 3//5 7//5 8//5 4//5
f 5//6 1//6 4//6 8//6
f 9//7 10//7 11//7 12//7
f 13//8 16//8 15//8 14//8
f 9//3 13//3 14//3 10//3
f 10//9 14//9 15//9 11//9
f 11//5 15//5 16//5 12//5
f 13//10 9//10 12//10 16//10
usemtl wood
f 17//7 18//7 19//7 20//7
f 21//8 24//8 23//8 22//8
f 17//3 21//3 22//3 18//3
f 18//9 22//9 23//9 19//9
f 19//5 23//5 24//5 20//5
f 21//10 17//10 20//10 24//10
f 25//5 26//5 28//5 27//5
f 27//10 28//10 32//10 31//10
f 31//3 32//3 30//3 29//3
f 29//9 30//9 26//9 25//9
f 27//7 31//7 29//7 25//7
f 32//8 28//8 26//8 30//8
f 33//5 34//5 36//5 35//5
f 35//10 36//10 40//10 39//10
f 39//3 40//3 38//3 37//3
f 37//9 38//9 34//9 33//9
f 35//7 39//7 37//7 33//7
f 40//8 36//8 34//8 38//8
f 41//5 42//5 44//5 43//5
f 43//10 44//10 48//10 47//10
f 47//3 48//3 46//3 45//3
f 45//9 46//9 42//9 41//9
f 43//7 47//7 45//7 41//7
f 48//8 44//8 42//8 46//8
f 49//5 50//5 52//5 51//5
f 51//10 52//10 56//10 55//10
f 55//3 56//3 54//3 53//3
f 53//9 54//9 50//9 49//9
f 51//7 55//7 53//7 49//7
f 56//8 52//8 50//8 54//8
f 57//5 58//5 60//5 59//5
f 59//10 60//10 64//10 63//10
f 63//3 64//3 62//3 61//3
f 61//9 62//9 58//9 57//9
f 59//7 63//7 61//7 57//7
f 64//8 60//8 58//8 62//8
f 65//5 66//5 68//5 67//5
f 67//10 68//10 72//10 71//10
f 71//3 72//3 70//3 69//3
f 69//9 70//9 66//9 65//9
f 67//7 71//7 69//7 65//7
f 72//8 68//8 66//8 70//8
f 73//7 74//7 75//7 76//7
f 77//8 80//8 79//8 78//8
f 73//3 77//3 78//3 74//3
f 74//9 78//9 79//9 75//9
f 75//5 79//5 80//5 76//5
f 77//10 73//10 76//10 80//10
