# Blender v2.79 (sub 0) OBJ File: 'fangliang.blend'
# www.blender.org
mtllib fangliang.mtl
o fangliang_Cube.003
v -2.510000 0.912226 0.200000
v -2.510000 1.012226 0.200000
v -2.510000 0.912226 -0.200000
v -2.510000 1.012226 -0.200000
v 2.490000 0.912226 0.200000
v 2.490000 1.012226 0.200000
v 2.490000 0.912226 -0.200000
v 2.490000 1.012226 -0.200000
v -1.787620 -0.572550 0.196364
v -1.787620 1.427450 0.196364
v -1.787620 -0.572550 -0.196364
v -1.787620 1.427450 -0.196364
v -1.687620 -0.572550 0.196364
v -1.687620 1.427450 0.196364
v -1.687620 -0.572550 -0.196364
v -1.687620 1.427450 -0.196364
v -0.629207 -0.537089 0.196364
v -0.629207 1.462911 0.196364
v -0.629207 -0.537089 -0.196364
v -0.629207 1.462911 -0.196364
v -0.529207 -0.537089 0.196364
v -0.529207 1.462911 0.196364
v -0.529207 -0.537089 -0.196364
v -0.529207 1.462911 -0.196364
v 1.734903 -0.548909 0.196364
v 1.734903 1.451091 0.196364
v 1.734903 -0.548909 -0.196364
v 1.734903 1.451091 -0.196364
v 1.834903 -0.548909 0.196364
v 1.834903 1.451091 0.196364
v 1.834903 -0.548909 -0.196364
v 1.834903 1.451091 -0.196364
v 0.576489 -0.537089 0.196364
v 0.576489 1.462911 0.196364
v 0.576489 -0.537089 -0.196364
v 0.576489 1.462911 -0.196364
v 0.676489 -0.537089 0.196364
v 0.676489 1.462911 0.196364
v 0.676489 -0.537089 -0.196364
v 0.676489 1.462911 -0.196364
v -1.196593 -0.560730 0.196364
v -1.196593 1.439270 0.196364
v -1.196593 -0.560730 -0.196364
v -1.196593 1.439270 -0.196364
v -1.096593 -0.560730 0.196364
v -1.096593 1.439270 0.196364
v -1.096593 -0.560730 -0.196364
v -1.096593 1.439270 -0.196364
v 1.167516 -0.548909 0.196364
v 1.167516 1.451091 0.196364
v 1.167516 -0.548909 -0.196364
v 1.167516 1.451091 -0.196364
v 1.267516 -0.548909 0.196364
v 1.267516 1.451091 0.196364
v 1.267516 -0.548909 -0.196364
v 1.267516 1.451091 -0.196364
v -0.050000 -0.572550 0.196364
v -0.050000 1.427450 0.196364
v -0.050000 -0.572550 -0.196364
v -0.050000 1.427450 -0.196364
v 0.050000 -0.572550 0.196364
v 0.050000 1.427450 0.196364
v 0.050000 -0.572550 -0.196364
v 0.050000 1.427450 -0.196364
v 2.311392 -0.537089 0.218823
v 2.311392 1.462911 0.218823
v 2.311392 -0.537089 -0.217541
v 2.311392 1.462911 -0.217541
v 2.511392 -0.537089 0.218823
v 2.511392 1.462911 0.218823
v 2.511392 -0.537089 -0.217541
v 2.511392 1.462911 -0.217541
v -2.523212 -0.560730 0.218823
v -2.523212 1.439270 0.218823
v -2.523212 -0.560730 -0.217541
v -2.523212 1.439270 -0.217541
v -2.323212 -0.560730 0.218823
v -2.323212 1.439270 0.218823
v -2.323212 -0.560730 -0.217541
v -2.323212 1.439270 -0.217541
v -2.520000 -0.587942 0.218182
v -2.520000 -0.387942 0.218182
v -2.520000 -0.587942 -0.218182
v -2.520000 -0.387942 -0.218182
v 2.520000 -0.587942 0.218182
v 2.520000 -0.387942 0.218182
v 2.520000 -0.587942 -0.218182
v 2.520000 -0.387942 -0.218182
v -2.538183 1.291954 0.218182
v -2.538183 1.491954 0.218182
v -2.538183 1.291954 -0.218182
v -2.538183 1.491954 -0.218182
v 2.501817 1.291954 0.218182
v 2.501817 1.491954 0.218182
v 2.501817 1.291954 -0.218182
v 2.501817 1.491954 -0.218182
v 2.500000 -0.539801 -0.181818
v 2.500000 -0.539801 0.181818
v -2.500000 -0.539801 0.181818
v -2.499999 -0.539801 -0.181818
v 2.500001 1.460199 -0.181818
v 2.499998 1.460199 0.181818
v -2.500001 1.460199 0.181818
v -2.500000 1.460199 -0.181818
vn -1.0000 0.0000 0.0000
vn 0.0000 0.0000 -1.0000
vn 1.0000 0.0000 0.0000
vn 0.0000 0.0000 1.0000
vn 0.0000 -1.0000 0.0000
vn 0.0000 1.0000 0.0000
usemtl Material.001
s off
f 1//1 2//1 4//1 3//1
f 3//2 4//2 8//2 7//2
f 7//3 8//3 6//3 5//3
f 5//4 6//4 2//4 1//4
f 3//5 7//5 5//5 1//5
f 8//6 4//6 2//6 6//6
f 9//1 10//1 12//1 11//1
f 11//2 12//2 16//2 15//2
f 15//3 16//3 14//3 13//3
f 13//4 14//4 10//4 9//4
f 11//5 15//5 13//5 9//5
f 16//6 12//6 10//6 14//6
f 17//1 18//1 20//1 19//1
f 19//2 20//2 24//2 23//2
f 23//3 24//3 22//3 21//3
f 21//4 22//4 18//4 17//4
f 19//5 23//5 21//5 17//5
f 24//6 20//6 18//6 22//6
f 25//1 26//1 28//1 27//1
f 27//2 28//2 32//2 31//2
f 31//3 32//3 30//3 29//3
f 29//4 30//4 26//4 25//4
f 27//5 31//5 29//5 25//5
f 32//6 28//6 26//6 30//6
f 33//1 34//1 36//1 35//1
f 35//2 36//2 40//2 39//2
f 39//3 40//3 38//3 37//3
f 37//4 38//4 34//4 33//4
f 35//5 39//5 37//5 33//5
f 40//6 36//6 34//6 38//6
f 41//1 42//1 44//1 43//1
f 43//2 44//2 48//2 47//2
f 47//3 48//3 46//3 45//3
f 45//4 46//4 42//4 41//4
f 43//5 47//5 45//5 41//5
f 48//6 44//6 42//6 46//6
f 49//1 50//1 52//1 51//1
f 51//2 52//2 56//2 55//2
f 55//3 56//3 54//3 53//3
f 53//4 54//4 50//4 49//4
f 51//5 55//5 53//5 49//5
f 56//6 52//6 50//6 54//6
f 57//1 58//1 60//1 59//1
f 59//2 60//2 64//2 63//2
f 63//3 64//3 62//3 61//3
f 61//4 62//4 58//4 57//4
f 59//5 63//5 61//5 57//5
f 64//6 60//6 58//6 62//6
f 65//1 66//1 68//1 67//1
f 67//2 68//2 72//2 71//2
f 71//3 72//3 70//3 69//3
f 69//4 70//4 66//4 65//4
f 67//5 71//5 69//5 65//5
f 72//6 68//6 66//6 70//6
f 73//1 74//1 76//1 75//1
f 75//2 76//2 80//2 79//2
f 79//3 80//3 78//3 77//3
f 77//4 78//4 74//4 73//4
f 75//5 79//5 77//5 73//5
f 80//6 76//6 74//6 78//6
f 81//1 82//1 84//1 83//1
f 83//2 84//2 88//2 87//2
f 87//3 88//3 86//3 85//3
f 85//4 86//4 82//4 81//4
f 83//5 87//5 85//5 81//5
f 88//6 84//6 82//6 86//6
f 89//1 90//1 92//1 91//1
f 91//2 92//2 96//2 95//2
f 95//3 96//3 94//3 93//3
f 93//4 94//4 90//4 89//4
f 91//5 95//5 93//5 89//5
f 96//6 92//6 90//6 94//6
usemtl Material
f 97//5 98//5 99//5 100//5
f 101//6 104//6 103//6 102//6
f 97//3 101//3 102//3 98//3
f 98//4 102//4 103//4 99//4
f 99//1 103//1 104//1 100//1
f 101//2 97//2 100//2 104//2
