# Blender v2.79 (sub 0) OBJ File: 'floor001.blend'
# www.blender.org
mtllib floor001.mtl
o Cube
v 5.000000 0.062534 -2.500000
v 5.000000 0.062534 2.500000
v -5.000000 0.062534 2.500000
v -4.999998 0.062534 -2.500001
v 5.000002 0.262534 -2.499999
v 4.999997 0.262534 2.500001
v -5.000002 0.262534 2.499999
v -5.000000 0.262534 -2.500000
v -4.800000 0.062534 2.300000
v -4.800000 0.262534 2.300000
v 4.800000 0.062534 2.300000
v 4.800000 0.262534 2.300000
v -4.800000 0.062534 -2.300000
v -4.800000 0.262534 -2.300000
v 4.800000 0.062534 -2.300000
v 4.800000 0.262534 -2.300000
v -4.800000 0.060591 2.300000
v -4.800000 0.260591 2.300000
v -4.800000 0.060591 -2.300000
v -4.800000 0.260591 -2.300000
v 4.800000 0.060591 2.300000
v 4.800000 0.260591 2.300000
v 4.800000 0.060591 -2.300000
v 4.800000 0.260591 -2.300000
vn 0.0000 -1.0000 0.0000
vn 0.0000 1.0000 0.0000
vn 1.0000 0.0000 0.0000
vn -0.0000 -0.0000 1.0000
vn -1.0000 -0.0000 -0.0000
vn 0.0000 0.0000 -1.0000
usemtl Material
s off
f 1//1 2//1 11//1 15//1 13//1 4//1
f 5//2 8//2 7//2 10//2 14//2 16//2
f 1//3 5//3 6//3 2//3
f 2//4 6//4 7//4 3//4
f 3//5 7//5 8//5 4//5
f 5//6 1//6 4//6 8//6
f 11//5 12//5 16//5 15//5
f 15//4 16//4 14//4 13//4
f 13//3 14//3 10//3 9//3
f 16//2 12//2 10//2 7//2 6//2 5//2
f 4//1 13//1 9//1 11//1 2//1 3//1
f 9//6 10//6 12//6 11//6
usemtl Material.001
f 17//5 18//5 20//5 19//5
f 19//6 20//6 24//6 23//6
f 23//3 24//3 22//3 21//3
f 21//4 22//4 18//4 17//4
f 19//1 23//1 21//1 17//1
f 24//2 20//2 18//2 22//2
