# Blender v2.79 (sub 0) OBJ File: 'paint001.blend'
# www.blender.org
mtllib paint001.mtl
o Cube.001_Cube.002
v -1.300000 -0.040000 1.800000
v -1.300000 0.040000 1.800000
v -1.300000 -0.040000 -1.800000
v -1.300000 0.040000 -1.800000
v 1.300000 -0.040000 1.800000
v 1.300000 0.040000 1.800000
v 1.300000 -0.040000 -1.800000
v 1.300000 0.040000 -1.800000
vn -1.0000 0.0000 0.0000
vn 0.0000 0.0000 -1.0000
vn 1.0000 0.0000 0.0000
vn 0.0000 0.0000 1.0000
vn 0.0000 -1.0000 0.0000
vn 0.0000 1.0000 0.0000
usemtl wood
s off
f 1//1 2//1 4//1 3//1
f 3//2 4//2 8//2 7//2
f 7//3 8//3 6//3 5//3
f 5//4 6//4 2//4 1//4
f 3//5 7//5 5//5 1//5
f 8//6 4//6 2//6 6//6
o Cube_Cube.001
v -1.200000 -0.050000 1.700000
v -1.200000 0.050000 1.700000
v -1.200000 -0.050000 -1.700000
v -1.200000 0.050000 -1.700000
v 1.200000 -0.050000 1.700000
v 1.200000 0.050000 1.700000
v 1.200000 -0.050000 -1.700000
v 1.200000 0.050000 -1.700000
vn -1.0000 0.0000 0.0000
vn 0.0000 0.0000 -1.0000
vn 1.0000 0.0000 0.0000
vn 0.0000 0.0000 1.0000
vn 0.0000 -1.0000 0.0000
vn 0.0000 1.0000 0.0000
usemtl Material
s off
f 9//7 10//7 12//7 11//7
f 11//8 12//8 16//8 15//8
f 15//9 16//9 14//9 13//9
f 13//10 14//10 10//10 9//10
f 11//11 15//11 13//11 9//11
f 16//12 12//12 10//12 14//12
o Plane
v -1.011786 0.053516 1.039570
v 0.988214 0.053516 1.039570
v -1.011786 0.053516 -0.960430
v 0.988214 0.053516 -0.960430
vn 0.0000 1.0000 0.0000
usemtl paint001
s off
f 17//13 18//13 20//13 19//13
