# Blender v2.79 (sub 0) OBJ File: 'sofa.blend'
# www.blender.org
mtllib sofa.mtl
o Cube.002_Cube.013
v 0.086690 0.924984 0.457704
v 0.086690 2.193815 -0.133962
v 0.086690 0.755936 0.095180
v 0.086690 2.024767 -0.496485
v 2.286690 0.924984 0.457704
v 2.286690 2.193815 -0.133962
v 2.286690 0.755936 0.095180
v 2.286690 2.024767 -0.496485
v -2.286690 0.924984 0.457703
v -2.286690 2.193815 -0.133962
v -2.286690 0.755937 0.095180
v -2.286690 2.024767 -0.496485
v -0.086690 0.924984 0.457703
v -0.086690 2.193815 -0.133962
v -0.086690 0.755937 0.095180
v -0.086690 2.024767 -0.496485
v -2.400001 0.045385 2.154948
v -2.400001 0.745385 2.154948
v -2.400000 0.045385 -0.145053
v -2.400000 0.745385 -0.145053
v 2.400000 0.045385 2.154948
v 2.400000 0.745385 2.154948
v 2.400001 0.045385 -0.145053
v 2.400001 0.745385 -0.145053
v 2.400000 1.170000 -0.731415
v 2.400000 1.170000 -0.131415
v -2.400000 1.170000 -0.131415
v -2.399999 1.170000 -0.731415
v 2.400001 1.230000 -0.731415
v 2.399999 1.230000 -0.131415
v -2.400001 1.230000 -0.131415
v -2.400000 1.230000 -0.731415
v 2.500000 0.570000 -0.731415
v 2.500000 0.570000 -0.131415
v -2.500000 0.570000 -0.131415
v -2.499999 0.570000 -0.731415
v 2.500001 0.630000 -0.731415
v 2.499999 0.630000 -0.131415
v -2.500000 0.630000 -0.131415
v -2.500000 0.630000 -0.731415
v -2.339805 -0.046156 -0.736406
v -2.339805 -0.046156 -0.136406
v -2.399805 -0.046156 -0.136406
v -2.399805 -0.046156 -0.736406
v -2.339805 1.233844 -0.736406
v -2.339805 1.233844 -0.136406
v -2.399805 1.233844 -0.136406
v -2.399805 1.233844 -0.736406
v 2.404618 -0.046156 -0.736406
v 2.404618 -0.046156 -0.136406
v 2.334618 -0.046156 -0.136406
v 2.334618 -0.046156 -0.736406
v 2.404618 1.233844 -0.736406
v 2.404618 1.233844 -0.136406
v 2.334618 1.233844 -0.136406
v 2.334618 1.233844 -0.736406
v -2.395484 -0.046156 2.260678
v -2.395484 -0.046156 2.320678
v -2.995484 -0.046156 2.320678
v -2.995484 -0.046156 2.260678
v -2.395483 1.233844 2.260678
v -2.395484 1.233844 2.320678
v -2.995484 1.233844 2.320678
v -2.995484 1.233844 2.260678
v 2.997019 -0.046156 2.260678
v 2.997019 -0.046156 2.320678
v 2.397019 -0.046156 2.320678
v 2.397019 -0.046156 2.260678
v 2.997019 1.233844 2.260678
v 2.997019 1.233844 2.320678
v 2.397019 1.233844 2.320678
v 2.397019 1.233844 2.260678
v -2.400396 1.170000 -0.740131
v -2.400397 1.170000 2.259869
v -3.000397 1.170000 2.259869
v -3.000396 1.170000 -0.740131
v -2.400396 1.230000 -0.740130
v -2.400397 1.230000 2.259870
v -3.000397 1.230000 2.259868
v -3.000396 1.230000 -0.740131
v 2.997019 1.170000 -0.740131
v 2.997019 1.170000 2.259869
v 2.397019 1.170000 2.259869
v 2.397019 1.170000 -0.740131
v 2.997019 1.230000 -0.740130
v 2.997019 1.230000 2.259870
v 2.397019 1.230000 2.259868
v 2.397019 1.230000 -0.740131
v -2.400396 0.570000 -0.740131
v -2.400397 0.570000 2.259869
v -3.000397 0.570000 2.259869
v -3.000396 0.570000 -0.740131
v -2.400396 0.630000 -0.740130
v -2.400397 0.630000 2.259870
v -3.000397 0.630000 2.259869
v -3.000396 0.630000 -0.740131
v 2.997019 0.570000 -0.740131
v 2.997019 0.570000 2.259869
v 2.397019 0.570000 2.259869
v 2.397019 0.570000 -0.740131
v 2.997019 0.630000 -0.740130
v 2.997019 0.630000 2.259870
v 2.397019 0.630000 2.259869
v 2.397019 0.630000 -0.740131
v 3.000000 -0.050000 -0.740131
v 3.000000 -0.050000 2.259869
v -3.000000 -0.050000 2.259869
v -2.999999 -0.050000 -0.740131
v 3.000001 0.050000 -0.740130
v 2.999998 0.050000 2.259870
v -3.000001 0.050000 2.259869
v -3.000000 0.050000 -0.740131
vn -1.0000 0.0000 0.0000
vn 0.0000 -0.4226 -0.9063
vn 1.0000 0.0000 0.0000
vn 0.0000 0.4226 0.9063
vn 0.0000 -0.9063 0.4226
vn 0.0000 0.9063 -0.4226
vn 0.0000 0.0000 -1.0000
vn 0.0000 0.0000 1.0000
vn 0.0000 -1.0000 -0.0000
vn 0.0000 1.0000 0.0000
usemtl deep
s off
f 1//1 2//1 4//1 3//1
f 3//2 4//2 8//2 7//2
f 7//3 8//3 6//3 5//3
f 5//4 6//4 2//4 1//4
f 3//5 7//5 5//5 1//5
f 8//6 4//6 2//6 6//6
f 9//1 10//1 12//1 11//1
f 11//2 12//2 16//2 15//2
f 15//3 16//3 14//3 13//3
f 13//4 14//4 10//4 9//4
f 11//5 15//5 13//5 9//5
f 16//6 12//6 10//6 14//6
f 17//1 18//1 20//1 19//1
f 19//7 20//7 24//7 23//7
f 23//3 24//3 22//3 21//3
f 21//8 22//8 18//8 17//8
f 19//9 23//9 21//9 17//9
f 24//10 20//10 18//10 22//10
usemtl woodDeep
f 25//9 26//9 27//9 28//9
f 29//10 32//10 31//10 30//10
f 25//3 29//3 30//3 26//3
f 26//8 30//8 31//8 27//8
f 27//1 31//1 32//1 28//1
f 29//7 25//7 28//7 32//7
f 33//9 34//9 35//9 36//9
f 37//10 40//10 39//10 38//10
f 33//3 37//3 38//3 34//3
f 34//8 38//8 39//8 35//8
f 35//1 39//1 40//1 36//1
f 37//7 33//7 36//7 40//7
f 41//9 42//9 43//9 44//9
f 45//10 48//10 47//10 46//10
f 41//3 45//3 46//3 42//3
f 42//8 46//8 47//8 43//8
f 43//1 47//1 48//1 44//1
f 45//7 41//7 44//7 48//7
f 49//9 50//9 51//9 52//9
f 53//10 56//10 55//10 54//10
f 49//3 53//3 54//3 50//3
f 50//8 54//8 55//8 51//8
f 51//1 55//1 56//1 52//1
f 53//7 49//7 52//7 56//7
f 57//9 58//9 59//9 60//9
f 61//10 64//10 63//10 62//10
f 57//3 61//3 62//3 58//3
f 58//8 62//8 63//8 59//8
f 59//1 63//1 64//1 60//1
f 61//7 57//7 60//7 64//7
f 65//9 66//9 67//9 68//9
f 69//10 72//10 71//10 70//10
f 65//3 69//3 70//3 66//3
f 66//8 70//8 71//8 67//8
f 67//1 71//1 72//1 68//1
f 69//7 65//7 68//7 72//7
f 73//9 74//9 75//9 76//9
f 77//10 80//10 79//10 78//10
f 73//3 77//3 78//3 74//3
f 74//8 78//8 79//8 75//8
f 75//1 79//1 80//1 76//1
f 77//7 73//7 76//7 80//7
f 81//9 82//9 83//9 84//9
f 85//10 88//10 87//10 86//10
f 81//3 85//3 86//3 82//3
f 82//8 86//8 87//8 83//8
f 83//1 87//1 88//1 84//1
f 85//7 81//7 84//7 88//7
f 89//9 90//9 91//9 92//9
f 93//10 96//10 95//10 94//10
f 89//3 93//3 94//3 90//3
f 90//8 94//8 95//8 91//8
f 91//1 95//1 96//1 92//1
f 93//7 89//7 92//7 96//7
f 97//9 98//9 99//9 100//9
f 101//10 104//10 103//10 102//10
f 97//3 101//3 102//3 98//3
f 98//8 102//8 103//8 99//8
f 99//1 103//1 104//1 100//1
f 101//7 97//7 100//7 104//7
f 105//9 106//9 107//9 108//9
f 109//10 112//10 111//10 110//10
f 105//3 109//3 110//3 106//3
f 106//8 110//8 111//8 107//8
f 107//1 111//1 112//1 108//1
f 109//7 105//7 108//7 112//7
