# Blender v2.79 (sub 0) OBJ File: 'table.blend'
# www.blender.org
mtllib table.mtl
o Cube.008
v 3.994410 1.891447 0.436510
v 3.994410 2.091447 0.436510
v 0.554410 1.891447 0.436510
v 0.554410 2.091447 0.436510
v 3.994410 1.891447 -4.003490
v 3.994410 2.091447 -4.003490
v 0.554410 1.891447 -4.003490
v 0.554410 2.091447 -4.003490
v -0.554410 1.891447 4.003489
v -0.554410 2.091447 4.003489
v -3.994411 1.891447 4.003490
v -3.994411 2.091447 4.003490
v -0.554410 1.891447 -0.436510
v -0.554410 2.091447 -0.436510
v -3.994411 1.891447 -0.436510
v -3.994411 2.091447 -0.436510
v -4.003490 1.891447 -0.574373
v -4.003490 2.091447 -0.574373
v -4.003490 1.891447 -4.014374
v -4.003490 2.091447 -4.014374
v 0.436510 1.891447 -0.574373
v 0.436510 2.091447 -0.574373
v 0.436510 1.891447 -4.014374
v 0.436510 2.091447 -4.014374
v -0.436506 1.891447 3.994409
v -0.436506 2.091447 3.994409
v -0.436506 1.891447 0.554409
v -0.436506 2.091447 0.554409
v 4.003495 1.891447 3.994410
v 4.003495 2.091447 3.994410
v 4.003495 1.891447 0.554410
v 4.003495 2.091447 0.554410
v -0.398315 -0.000000 4.000663
v -0.398316 2.000000 4.000663
v -0.598315 -0.000000 4.000663
v -0.598315 2.000000 4.000663
v -0.398316 -0.000000 -0.599338
v -0.398316 2.000000 -0.599338
v -0.598315 -0.000000 -0.599338
v -0.598316 2.000000 -0.599338
v -4.006640 -0.000000 -0.401802
v -4.006640 2.000000 -0.401802
v -4.006640 -0.000000 -0.601802
v -4.006640 2.000000 -0.601802
v 0.593360 -0.000000 -0.401801
v 0.593359 2.000000 -0.401801
v 0.593360 -0.000000 -0.601801
v 0.593359 2.000000 -0.601801
v 0.599383 -0.000000 0.611298
v 0.599383 2.000000 0.611298
v 0.399383 -0.000000 0.611298
v 0.399383 2.000000 0.611298
v 0.599383 -0.000000 -3.988703
v 0.599383 2.000000 -3.988703
v 0.399383 -0.000000 -3.988703
v 0.399383 2.000000 -3.988703
v -0.591830 -0.000000 0.614438
v -0.591831 2.000000 0.614438
v -0.591830 -0.000000 0.414438
v -0.591831 2.000000 0.414438
v 4.008170 0.000000 0.614438
v 4.008169 2.000000 0.614438
v 4.008170 0.000000 0.414438
v 4.008169 2.000000 0.414438
v 4.000000 -0.100000 -4.000000
v 4.000000 -0.100000 4.000001
v -4.000000 -0.100000 4.000000
v -3.999999 -0.100000 -4.000002
v 4.000002 0.100000 -3.999998
v 3.999998 0.100000 4.000003
v -4.000001 0.100000 3.999999
v -4.000000 0.100000 -4.000000
vn 0.0000 0.0000 1.0000
vn -1.0000 0.0000 0.0000
vn 0.0000 0.0000 -1.0000
vn 1.0000 0.0000 0.0000
vn 0.0000 -1.0000 0.0000
vn 0.0000 1.0000 -0.0000
usemtl Material
s off
f 1//1 2//1 4//1 3//1
f 3//2 4//2 8//2 7//2
f 7//3 8//3 6//3 5//3
f 5//4 6//4 2//4 1//4
f 3//5 7//5 5//5 1//5
f 8//6 4//6 2//6 6//6
f 9//1 10//1 12//1 11//1
f 11//2 12//2 16//2 15//2
f 15//3 16//3 14//3 13//3
f 13//4 14//4 10//4 9//4
f 11//5 15//5 13//5 9//5
f 16//6 12//6 10//6 14//6
f 17//2 18//2 20//2 19//2
f 19//3 20//3 24//3 23//3
f 23//4 24//4 22//4 21//4
f 21//1 22//1 18//1 17//1
f 19//5 23//5 21//5 17//5
f 24//6 20//6 18//6 22//6
f 25//2 26//2 28//2 27//2
f 27//3 28//3 32//3 31//3
f 31//4 32//4 30//4 29//4
f 29//1 30//1 26//1 25//1
f 27//5 31//5 29//5 25//5
f 32//6 28//6 26//6 30//6
f 33//1 34//1 36//1 35//1
f 35//2 36//2 40//2 39//2
f 39//3 40//3 38//3 37//3
f 37//4 38//4 34//4 33//4
f 35//5 39//5 37//5 33//5
f 40//6 36//6 34//6 38//6
f 41//2 42//2 44//2 43//2
f 43//3 44//3 48//3 47//3
f 47//4 48//4 46//4 45//4
f 45//1 46//1 42//1 41//1
f 43//5 47//5 45//5 41//5
f 48//6 44//6 42//6 46//6
f 49//1 50//1 52//1 51//1
f 51//2 52//2 56//2 55//2
f 55//3 56//3 54//3 53//3
f 53//4 54//4 50//4 49//4
f 51//5 55//5 53//5 49//5
f 56//6 52//6 50//6 54//6
f 57//2 58//2 60//2 59//2
f 59//3 60//3 64//3 63//3
f 63//4 64//4 62//4 61//4
f 61//1 62//1 58//1 57//1
f 59//5 63//5 61//5 57//5
f 64//6 60//6 58//6 62//6
f 65//5 66//5 67//5 68//5
f 69//6 72//6 71//6 70//6
f 65//4 69//4 70//4 66//4
f 66//1 70//1 71//1 67//1
f 67//2 71//2 72//2 68//2
f 69//3 65//3 68//3 72//3
