# Blender v2.79 (sub 0) OBJ File: 'woodFloor.blend'
# www.blender.org
mtllib woodFloor.mtl
o Cube.001_Cube.002
v -0.213000 0.096859 0.960000
v -0.213000 0.136859 0.960000
v -0.213000 0.096859 -0.960000
v -0.213000 0.136859 -0.960000
v 0.213000 0.096859 0.960000
v 0.213000 0.136859 0.960000
v 0.213000 0.096859 -0.960000
v 0.213000 0.136859 -0.960000
vn -1.0000 0.0000 0.0000
vn 0.0000 0.0000 -1.0000
vn 1.0000 0.0000 0.0000
vn 0.0000 0.0000 1.0000
vn 0.0000 -1.0000 0.0000
vn 0.0000 1.0000 0.0000
usemtl woodFloor
s off
f 1//1 2//1 4//1 3//1
f 3//2 4//2 8//2 7//2
f 7//3 8//3 6//3 5//3
f 5//4 6//4 2//4 1//4
f 3//5 7//5 5//5 1//5
f 8//6 4//6 2//6 6//6
o Cube_Cube.001
v -0.220000 0.098859 0.970000
v -0.220000 0.134859 0.970000
v -0.220000 0.098859 -0.970000
v -0.220000 0.134859 -0.970000
v 0.220000 0.098859 0.970000
v 0.220000 0.134859 0.970000
v 0.220000 0.098859 -0.970000
v 0.220000 0.134859 -0.970000
v -0.184800 0.134859 0.931200
v -0.184800 0.098859 0.931200
v 0.184800 0.134859 0.931200
v 0.184800 0.098859 0.931200
v -0.184800 0.134859 -0.931200
v -0.184800 0.098859 -0.931200
v 0.184800 0.134859 -0.931200
v 0.184800 0.098859 -0.931200
vn -1.0000 0.0000 0.0000
vn 0.0000 0.0000 -1.0000
vn 1.0000 0.0000 0.0000
vn 0.0000 0.0000 1.0000
vn 0.0000 -1.0000 -0.0000
vn 0.0000 1.0000 0.0000
usemtl woodFloor002
s off
f 9//7 10//7 12//7 11//7
f 11//8 12//8 16//8 15//8
f 15//9 16//9 14//9 13//9
f 13//10 14//10 10//10 9//10
f 11//11 15//11 13//11 20//11 24//11 22//11
f 16//12 23//12 19//12 17//12 10//12 14//12
f 20//7 19//7 23//7 24//7
f 24//10 23//10 21//10 22//10
f 10//12 17//12 21//12 23//12 16//12 12//12
f 22//9 21//9 17//9 18//9
f 18//8 17//8 19//8 20//8
f 22//11 18//11 20//11 13//11 9//11 11//11
